<svg width="576" height="577" xmlns="http://www.w3.org/2000/svg" xmlns:xlink="http://www.w3.org/1999/xlink" xml:space="preserve" overflow="hidden"><defs><clipPath id="clip0"><rect x="680" y="24" width="576" height="577"/></clipPath><clipPath id="clip1"><rect x="680" y="25" width="576" height="576"/></clipPath><clipPath id="clip2"><rect x="680" y="25" width="576" height="576"/></clipPath><clipPath id="clip3"><rect x="680" y="25" width="576" height="576"/></clipPath></defs><g clip-path="url(#clip0)" transform="translate(-680 -24)"><g clip-path="url(#clip1)"><g clip-path="url(#clip2)"><g clip-path="url(#clip3)"><path d="M1160 421C1159.69 405.968 1152.64 391.871 1140.8 382.6 1114.4 361 1080.8 346.6 1047.2 337 1021.53 329.142 994.845 325.099 968 325 941.184 325.463 914.55 329.498 888.8 337 855.244 346.792 823.594 362.211 795.2 382.6 783.362 391.871 776.313 405.968 776 421L776 517 1160 517Z" fill="#000000" fill-rule="nonzero" fill-opacity="1"/><path d="M1070.66 274.6C1065.14 253 1086.26 199 1086.44 160.96 1086.44 130.54 1077.8 116.92 1061.48 107.68 1052.06 102.34 1030.34 107.26 1030.34 107.26 1030.34 107.26 1019.12 86.02 981.56 74.32 950.697 65.9172 917.759 70.1261 890 86.02 866.78 101.02 855.56 117.52 855.02 174.28 854.54 226.3 861.68 272.5 858.38 294.28 856.858 306.336 852.273 317.801 845.06 327.58 845.06 327.58 881.06 332.2 901.16 321.58 911.275 314.793 920.862 307.252 929.84 299.02 899.047 284.658 876.599 256.897 869 223.78 868.22 220.9 863 202.06 871.34 191.5 875.9 185.5 886.34 183.82 903.74 180.76 924.568 178.016 944.896 172.298 964.1 163.78 985.688 152.924 1005.71 139.2 1023.62 122.98 1025.98 120.655 1029.78 120.684 1032.11 123.045 1032.99 123.942 1033.57 125.095 1033.76 126.34 1035.19 136.21 1038.62 145.683 1043.84 154.18 1046.29 157.313 1049.3 159.959 1052.72 161.98 1056.71 164.37 1060.15 167.581 1062.8 171.4 1067.13 179.856 1069.59 189.147 1070 198.64 1069.61 242.424 1043.59 281.915 1003.52 299.56 1011.08 306.22 1020.98 314.44 1031.9 322.36 1049.9 335.38 1093.4 317.38 1093.4 317.38 1093.4 317.38 1079.36 308.98 1070.66 274.6Z" fill="#000000" fill-rule="nonzero" fill-opacity="1"/><path d="M1058 199C1057.68 191.748 1055.93 184.631 1052.84 178.06 1051.08 175.577 1048.79 173.526 1046.12 172.06 1041.53 169.296 1037.47 165.741 1034.12 161.56 1029.29 154.61 1025.81 146.814 1023.86 138.58 1007.11 152.645 988.787 164.724 969.26 174.58 948.99 183.597 927.532 189.659 905.54 192.58 895.4 194.38 882.74 196.6 880.58 198.88 876.98 203.56 878.84 215.5 880.58 220.54 890.84 263.8 927.56 295 968 295 1016 295 1058 250.12 1058 199Z" fill="#000000" fill-rule="nonzero" fill-opacity="1"/></g></g></g></g></svg>