<svg width="576" height="577" xmlns="http://www.w3.org/2000/svg" xmlns:xlink="http://www.w3.org/1999/xlink" xml:space="preserve" overflow="hidden"><defs><clipPath id="clip0"><rect x="0" y="24" width="576" height="577"/></clipPath><clipPath id="clip1"><rect x="0" y="25" width="576" height="576"/></clipPath><clipPath id="clip2"><rect x="0" y="25" width="576" height="576"/></clipPath><clipPath id="clip3"><rect x="0" y="25" width="576" height="576"/></clipPath></defs><g clip-path="url(#clip0)" transform="matrix(1 0 0 1 0 -24)"><g clip-path="url(#clip1)"><g clip-path="url(#clip2)"><g clip-path="url(#clip3)"><path d="M480 421C479.687 405.968 472.638 391.871 460.8 382.6 434.4 361 400.8 346.6 367.2 337 341.53 329.142 314.845 325.099 288 325 261.184 325.463 234.55 329.498 208.8 337 175.244 346.792 143.594 362.211 115.2 382.6 103.362 391.871 96.3132 405.968 96 421L96 517 480 517Z" fill="#000000" fill-rule="nonzero" fill-opacity="1"/><path d="M270 179.5C285.6 170.32 324 140.68 324 140.68L324 140.68C330.059 141.205 335.825 143.523 340.56 147.34 352.083 155.431 361.841 165.781 369.24 177.76 375.9 187.72 381.6 195.76 383.34 198.16L384 199C387 193 386.88 176.26 384.78 161.02 381.84 140.02 379.44 133.78 366 122.5 357.436 114.739 346.007 110.929 334.5 112 318.887 99.8842 300.079 92.5864 280.38 91 250.38 89.92 217.62 105.58 203.7 123.94 182.64 151.54 184.98 169.54 184.98 175.96 184.98 182.38 177.6 193.54 182.76 193.54 186.12 193.54 189.42 193.54 192.78 193.54 211.8 193 250.62 190.9 270 179.5Z" fill="#000000" fill-rule="nonzero" fill-opacity="1"/><path d="M374.52 206.02C374.22 205.6 367.62 196.42 359.58 184.48 352.977 173.651 344.215 164.296 333.84 157 331.82 155.529 329.623 154.32 327.3 153.4 316.62 161.5 289.14 182.14 276.06 189.76 255.3 201.76 217.44 204.94 192.06 205.48 192.718 258.495 236.228 300.939 289.243 300.282 336.595 299.695 376.445 264.666 383.1 217.78Z" fill="#000000" fill-rule="nonzero" fill-opacity="1"/></g></g></g></g></svg>