<?xml version="1.0" encoding="UTF-8" standalone="no"?>
<svg
   xmlns:dc="http://purl.org/dc/elements/1.1/"
   xmlns:cc="http://creativecommons.org/ns#"
   xmlns:rdf="http://www.w3.org/1999/02/22-rdf-syntax-ns#"
   xmlns:svg="http://www.w3.org/2000/svg"
   xmlns="http://www.w3.org/2000/svg"
   xmlns:sodipodi="http://sodipodi.sourceforge.net/DTD/sodipodi-0.dtd"
   xmlns:inkscape="http://www.inkscape.org/namespaces/inkscape"
   width="2.5059493cm"
   height="2.5059683cm"
   viewBox="0 0 71.034783 71.035318"
   version="1.2"
   id="svg2"
   inkscape:version="0.92.2 (5c3e80d, 2017-08-06)"
   sodipodi:docname="uowm-logo-plain.svg">
  <metadata
     id="metadata101">
    <rdf:RDF>
      <cc:Work
         rdf:about="">
        <dc:format>image/svg+xml</dc:format>
        <dc:type
           rdf:resource="http://purl.org/dc/dcmitype/StillImage" />
        <dc:title></dc:title>
      </cc:Work>
    </rdf:RDF>
  </metadata>
  <defs
     id="defs99" />
  <sodipodi:namedview
     pagecolor="#ffffff"
     bordercolor="#666666"
     borderopacity="1"
     objecttolerance="10"
     gridtolerance="10"
     guidetolerance="10"
     inkscape:pageopacity="0"
     inkscape:pageshadow="2"
     inkscape:window-width="1920"
     inkscape:window-height="1027"
     id="namedview97"
     showgrid="false"
     inkscape:zoom="2.8284272"
     inkscape:cx="204.94354"
     inkscape:cy="46.399058"
     inkscape:window-x="0"
     inkscape:window-y="27"
     inkscape:window-maximized="1"
     inkscape:current-layer="svg2"
     units="cm"
     fit-margin-top="0"
     fit-margin-left="0"
     fit-margin-right="0"
     fit-margin-bottom="0" />
  <g
     id="g3475"
     transform="translate(-71.457561,-167.18726)">
    <path
       style="fill:#cf144f;fill-opacity:1;fill-rule:nonzero;stroke:#302e2e;stroke-width:1.56011319;stroke-linecap:round;stroke-linejoin:round;stroke-miterlimit:4;stroke-opacity:1"
       d="m 88.427273,202.55324 -5.847657,5.84375 -6.035156,-6.03906 5.847656,-5.84766 z m 0,0"
       id="path5"
       inkscape:connector-curvature="0" />
    <path
       style="fill:#00a8ae;fill-opacity:1;fill-rule:nonzero;stroke:#302e2e;stroke-width:1.56011319;stroke-linecap:round;stroke-linejoin:round;stroke-miterlimit:4;stroke-opacity:1"
       d="m 100.87649,214.99855 -5.843749,5.84375 -6.039063,-6.03906 5.847656,-5.84375 z m 0,0"
       id="path7"
       inkscape:connector-curvature="0" />
    <path
       style="fill:#cf144f;fill-opacity:1;fill-rule:nonzero;stroke:#302e2e;stroke-width:1.56011319;stroke-linecap:round;stroke-linejoin:round;stroke-miterlimit:4;stroke-opacity:1"
       d="m 113.32181,227.44387 -5.83985,5.84766 -6.03906,-6.03907 5.84766,-5.83984 z m 0,0"
       id="path9"
       inkscape:connector-curvature="0" />
    <path
       style="fill:#00a8ae;fill-opacity:1;fill-rule:nonzero;stroke:#302e2e;stroke-width:1.56011319;stroke-linecap:round;stroke-linejoin:round;stroke-miterlimit:4;stroke-opacity:1"
       d="m 100.5093,190.47121 -5.847652,5.84765 -6.035156,-6.03906 5.84375,-5.84766 z m 0,0"
       id="path11"
       inkscape:connector-curvature="0" />
    <path
       style="fill:#00a8ae;fill-opacity:1;fill-rule:nonzero;stroke:#302e2e;stroke-width:1.56011319;stroke-linecap:round;stroke-linejoin:round;stroke-miterlimit:4;stroke-opacity:1"
       d="m 112.95852,202.92043 -5.84766,5.84766 -6.03906,-6.03907 5.84766,-5.84765 z m 0,0"
       id="path13"
       inkscape:connector-curvature="0" />
    <path
       style="fill:#00a8ae;fill-opacity:1;fill-rule:nonzero;stroke:#302e2e;stroke-width:1.56011319;stroke-linecap:round;stroke-linejoin:round;stroke-miterlimit:4;stroke-opacity:1"
       d="m 125.40384,215.36574 -5.84375,5.84375 -6.03907,-6.03516 5.84766,-5.84375 z m 0,0"
       id="path15"
       inkscape:connector-curvature="0" />
    <path
       style="fill:#cf144f;fill-opacity:1;fill-rule:nonzero;stroke:#302e2e;stroke-width:1.56011319;stroke-linecap:round;stroke-linejoin:round;stroke-miterlimit:4;stroke-opacity:1"
       d="m 112.58743,178.39308 -5.84765,5.84375 -6.03907,-6.03516 5.85157,-5.84765 z m 0,0"
       id="path17"
       inkscape:connector-curvature="0" />
    <path
       style="fill:#00a8ae;fill-opacity:1;fill-rule:nonzero;stroke:#302e2e;stroke-width:1.56011319;stroke-linecap:round;stroke-linejoin:round;stroke-miterlimit:4;stroke-opacity:1"
       d="m 125.03665,190.84231 -5.84766,5.84375 -6.03516,-6.03907 5.84375,-5.84375 z m 0,0"
       id="path19"
       inkscape:connector-curvature="0" />
    <path
       style="fill:#cf144f;fill-opacity:1;fill-rule:nonzero;stroke:#302e2e;stroke-width:1.56011319;stroke-linecap:round;stroke-linejoin:round;stroke-miterlimit:4;stroke-opacity:1"
       d="m 137.48196,203.28761 -5.84375,5.84766 -6.03906,-6.03906 5.84766,-5.84375 z m 0,0"
       id="path21"
       inkscape:connector-curvature="0" />
    <path
       style="fill:#f8a628;fill-opacity:1;fill-rule:nonzero;stroke:#302e2e;stroke-width:1.56011319;stroke-linecap:round;stroke-linejoin:round;stroke-miterlimit:4;stroke-opacity:1"
       d="m 119.23977,209.08058 -6.03125,-6.03516 -17.992186,17.98438 0.01562,0.0156 c -1.066407,1.00391 -6.464844,6.05078 -7.398438,6.98438 -0.714844,0.71484 -2.355468,1.10156 -3.847657,0.74218 -0.648437,-0.32031 -1.26953,-0.76172 -1.835937,-1.32421 -1.652344,-1.64844 -1.265625,-4.64844 -0.230468,-5.6875 0.933594,-0.92969 5.890624,-6.10547 6.882812,-7.14844 l 0.0039,0.008 5.847657,-5.84766 -6.039063,-6.03516 -5.632812,5.63672 -0.0078,-0.0156 c -1.878906,1.87891 -5.996094,6.02734 -7.929688,8.44141 -0.03906,0.0508 -0.07813,0.10156 -0.117188,0.15234 -0.15625,0.19922 -0.324218,0.40625 -0.457031,0.58984 -1.941406,2.62891 -2.660156,7.45703 -0.539063,11.85938 0.73047,1.78125 1.835939,3.4375 3.382814,4.77344 4.992187,4.30078 11.515625,3.68359 14.746094,1.30859 2.320313,-1.71875 7.000001,-6.29688 9.160154,-8.45313 l 0.0312,0.043 z m 0,0"
       id="path23"
       inkscape:connector-curvature="0" />
    <path
       style="fill:#f8b01e;fill-opacity:1;fill-rule:nonzero;stroke:#302e2e;stroke-width:1.56011319;stroke-linecap:round;stroke-linejoin:round;stroke-miterlimit:4;stroke-opacity:1"
       d="m 100.51712,214.73293 6.03516,-6.03516 -17.988287,-17.98828 -0.01171,0.0156 c -1.000001,-1.0664 -6.050782,-6.46484 -6.988282,-7.39843 -0.710938,-0.71485 -1.097657,-2.35547 -0.742188,-3.84766 0.324219,-0.64844 0.761719,-1.26953 1.328125,-1.83594 1.652343,-1.65234 4.644532,-1.26562 5.683594,-0.23047 0.929687,0.9336 6.109376,5.88672 7.148438,6.88672 h -0.0039 l 5.84766,5.84766 6.03125,-6.03906 -5.63282,-5.62891 0.0117,-0.0156 c -1.874997,-1.8711 -6.023436,-5.98828 -8.441404,-7.92188 -0.04688,-0.043 -0.09766,-0.082 -0.148438,-0.11718 -0.199219,-0.16016 -0.406249,-0.32813 -0.589843,-0.46094 -2.628907,-1.94532 -7.457032,-2.66016 -11.859376,-0.53516 -1.78125,0.73047 -3.441407,1.83203 -4.773438,3.375 -4.300781,4.99219 -3.6875,11.52344 -1.308594,14.7461 1.714844,2.32031 6.292969,7.0039 8.44922,9.16406 l -0.03516,0.0352 z m 0,0"
       id="path25"
       inkscape:connector-curvature="0" />
    <path
       style="fill:#f8a628;fill-opacity:1;fill-rule:nonzero;stroke:#302e2e;stroke-width:1.56011319;stroke-linecap:round;stroke-linejoin:round;stroke-miterlimit:4;stroke-opacity:1"
       d="m 95.099147,196.24465 6.035153,6.03125 17.98829,-17.98438 -0.0156,-0.0117 c 1.07032,-1.00001 6.46875,-6.05079 7.40235,-6.98438 0.71484,-0.71484 2.35156,-1.09766 3.84375,-0.74219 0.65234,0.32031 1.27344,0.75781 1.83984,1.32422 1.64844,1.65235 1.26563,4.64844 0.23047,5.6836 -0.93359,0.92968 -5.89062,6.10937 -6.88672,7.14843 l -0.004,-0.004 -5.84375,5.84765 6.03515,6.03125 5.63282,-5.63281 0.0117,0.0117 c 1.875,-1.87891 5.99219,-6.02344 7.92578,-8.44141 0.043,-0.0469 0.0781,-0.0976 0.11719,-0.14843 0.16016,-0.19922 0.32422,-0.40625 0.46094,-0.58594 1.9414,-2.63281 2.65625,-7.45703 0.53125,-11.86328 -0.72656,-1.78125 -1.82813,-3.44141 -3.375,-4.77344 -4.99219,-4.30078 -11.51953,-3.68359 -14.74219,-1.30469 -2.32422,1.71094 -7.00391,6.28906 -9.16797,8.44531 l -0.0312,-0.0351 z m 0,0"
       id="path27"
       inkscape:connector-curvature="0" />
    <path
       style="fill:#f8a628;fill-opacity:1;fill-rule:nonzero;stroke:#302e2e;stroke-width:1.56011319;stroke-linecap:round;stroke-linejoin:round;stroke-miterlimit:4;stroke-opacity:1"
       d="m 113.35305,190.82668 -6.03516,6.03906 17.98438,17.98438 0.0156,-0.0117 c 1,1.06641 6.05078,6.46484 6.98438,7.39844 0.71093,0.71484 1.10156,2.35547 0.74218,3.84375 -0.32422,0.65234 -0.76172,1.27344 -1.32812,1.83984 -1.64844,1.65234 -4.64453,1.26563 -5.6836,0.23047 -0.93359,-0.92969 -6.10546,-5.89062 -7.14843,-6.88281 l 0.004,-0.004 -5.84765,-5.84765 -6.03125,6.03515 5.63281,5.63672 -0.008,0.008 c 1.8711,1.88281 6.01954,5.9961 8.43751,7.92969 0.0469,0.0391 0.10156,0.0742 0.15234,0.11719 0.19531,0.15625 0.40625,0.32422 0.58594,0.45703 2.63281,1.94141 7.46094,2.66015 11.85937,0.53515 1.78125,-0.73046 3.44141,-1.82812 4.77344,-3.3789 4.30469,-4.98828 3.6875,-11.51563 1.30859,-14.74219 -1.71484,-2.32031 -6.29297,-7.00391 -8.44531,-9.16016 l 0.0352,-0.0391 z m 0,0"
       id="path29"
       inkscape:connector-curvature="0" />
    <path
       style="fill:#bdbaba;fill-opacity:1;fill-rule:nonzero;stroke:#302e2e;stroke-width:1.56011319;stroke-linecap:round;stroke-linejoin:round;stroke-miterlimit:4;stroke-opacity:1"
       d="m 94.614777,208.9634 -5.843751,5.84766 -6.039063,-6.03516 5.847657,-5.84766 z m 0,0"
       id="path31"
       inkscape:connector-curvature="0" />
    <path
       style="fill:#bdbaba;fill-opacity:1;fill-rule:nonzero;stroke:#302e2e;stroke-width:1.56011319;stroke-linecap:round;stroke-linejoin:round;stroke-miterlimit:4;stroke-opacity:1"
       d="m 119.04446,221.31886 -5.84765,5.84375 -6.03516,-6.03515 5.84766,-5.84766 z m 0,0"
       id="path33"
       inkscape:connector-curvature="0" />
    <path
       style="fill:#bdbaba;fill-opacity:1;fill-rule:nonzero;stroke:#302e2e;stroke-width:1.56011319;stroke-linecap:round;stroke-linejoin:round;stroke-miterlimit:4;stroke-opacity:1"
       d="m 106.22805,184.33839 -5.84765,5.84766 -6.035159,-6.03516 5.847659,-5.84765 z m 0,0"
       id="path35"
       inkscape:connector-curvature="0" />
    <path
       style="fill:#bdbaba;fill-opacity:1;fill-rule:nonzero;stroke:#302e2e;stroke-width:1.56011319;stroke-linecap:round;stroke-linejoin:round;stroke-miterlimit:4;stroke-opacity:1"
       d="m 131.5054,196.68996 -5.84765,5.84766 -6.03516,-6.03516 5.84375,-5.84766 z m 0,0"
       id="path37"
       inkscape:connector-curvature="0" />
  </g>
</svg>
